<?xml version="1.0" encoding="utf-8"?>
<svg version="1.1" xmlns:xlink="http://www.w3.org/1999/xlink" width="14px" height="8px" xmlns="http://www.w3.org/2000/svg">
  <g transform="matrix(1 0 0 1 -438 -309 )">
    <path d="M 13.6548959988943 6.54295532646046  C 13.7470342984819 6.63459335624282  13.7931034482758 6.73997709049257  13.7931034482758 6.85910652920961  C 13.7931034482758 6.97823596792671  13.7470342984819 7.08361970217641  13.6548959988943 7.17525773195877  L 12.9638587519867 7.86254295532643  C 12.871720452399 7.95418098510879  12.7657614078731 8  12.6459816184092 8  C 12.5262018289452 8  12.4202427844193 7.95418098510879  12.3281044848317 7.86254295532643  L 6.89655172413791 2.46048109965636  L 1.46499896344415 7.86254295532643  C 1.3728606638565 7.95418098510879  1.26690161933061 8  1.14712182986659 8  C 1.02734204040269 8  0.921382995876797 7.95418098510879  0.829244696289152 7.86254295532643  L 0.138207449381525 7.17525773195877  C 0.0460691497938797 7.08361970217641  0 6.97823596792671  0 6.85910652920961  C 0 6.73997709049257  0.0460691497938797 6.63459335624282  0.138207449381525 6.54295532646046  L 6.57867459056035 0.137457044673567  C 6.67081289014811 0.0458190148911513  6.77677193467389 0  6.89655172413791 0  C 7.01633151360193 0  7.1222905581277 0.0458190148911513  7.21442885771546 0.137457044673567  L 13.6548959988943 6.54295532646046  Z " fill-rule="nonzero" fill="#000000" stroke="none" transform="matrix(1 0 0 1 438 309 )" />
  </g>
</svg>