<?xml version="1.0" encoding="utf-8"?>
<svg version="1.1" xmlns:xlink="http://www.w3.org/1999/xlink" width="14px" height="8px" xmlns="http://www.w3.org/2000/svg">
  <g transform="matrix(1 0 0 1 -438 -696 )">
    <path d="M 13.6548959988943 0.824742268041291  C 13.747034298482 0.916380297823594  13.7931034482759 1.02176403207329  13.7931034482759 1.14089347079039  C 13.7931034482759 1.26002290950748  13.747034298482 1.36540664375718  13.6548959988943 1.45704467353949  L 7.2144288577154 7.86254295532649  C 7.12229055812776 7.95418098510879  7.01633151360193 8  6.89655172413796 8  C 6.77677193467395 8  6.67081289014817 7.95418098510879  6.57867459056047 7.86254295532649  L 0.138207449381525 1.45704467353949  C 0.0460691497938228 1.36540664375718  0 1.26002290950748  0 1.14089347079039  C 0 1.02176403207329  0.0460691497938228 0.916380297823594  0.138207449381525 0.824742268041291  L 0.829244696289152 0.137457044673511  C 0.921382995876854 0.0458190148912081  1.02734204040263 0  1.14712182986665 0  C 1.26690161933061 0  1.37286066385644 0.0458190148912081  1.46499896344409 0.137457044673511  L 6.89655172413796 5.53951890034364  L 12.3281044848318 0.137457044673511  C 12.4202427844195 0.0458190148912081  12.5262018289453 0  12.6459816184092 0  C 12.7657614078732 0  12.8717204523991 0.0458190148912081  12.9638587519867 0.137457044673511  L 13.6548959988943 0.824742268041291  Z " fill-rule="nonzero" fill="#000000" stroke="none" transform="matrix(1 0 0 1 438 696 )" />
  </g>
</svg>