<?xml version="1.0" encoding="utf-8"?>
<svg version="1.1" xmlns:xlink="http://www.w3.org/1999/xlink" width="30px" height="30px" xmlns="http://www.w3.org/2000/svg">
  <defs>
    <filter x="925px" y="1787px" width="30px" height="30px" filterUnits="userSpaceOnUse" id="filter7">
      <feOffset dx="1" dy="1" in="SourceAlpha" result="shadowOffsetInner" />
      <feGaussianBlur stdDeviation="2.5" in="shadowOffsetInner" result="shadowGaussian" />
      <feComposite in2="shadowGaussian" operator="atop" in="SourceAlpha" result="shadowComposite" />
      <feColorMatrix type="matrix" values="0 0 0 0 0  0 0 0 0 0  0 0 0 0 0  0 0 0 0.698039215686274 0  " in="shadowComposite" />
    </filter>
    <g id="widget8">
      <path d="M 939 1791  C 944.6 1791  949 1795.4  949 1801  C 949 1806.6  944.6 1811  939 1811  C 933.4 1811  929 1806.6  929 1801  C 929 1795.4  933.4 1791  939 1791  Z " fill-rule="nonzero" fill="#ff3333" stroke="none" fill-opacity="0.6" />
      <path d="M 939 1791.5  C 944.32 1791.5  948.5 1795.68  948.5 1801  C 948.5 1806.32  944.32 1810.5  939 1810.5  C 933.68 1810.5  929.5 1806.32  929.5 1801  C 929.5 1795.68  933.68 1791.5  939 1791.5  Z " stroke-width="1" stroke="#ffffff" fill="none" />
    </g>
  </defs>
  <g transform="matrix(1 0 0 1 -925 -1787 )">
    <use xlink:href="#widget8" filter="url(#filter7)" />
    <use xlink:href="#widget8" />
  </g>
</svg>